<?xml version="1.0" encoding="UTF-8"?>
<!DOCTYPE svg PUBLIC "-//W3C//DTD SVG 1.1//EN" "http://www.w3.org/Graphics/SVG/1.1/DTD/svg11.dtd">
<svg width="61mm" height="31mm" viewBox="0 0 6100 3100" version="1.1" xmlns="http://www.w3.org/2000/svg" xmlns:xlink="http://www.w3.org/1999/xlink" stroke-width="28.222" stroke-linejoin="round" xml:space="preserve">
 <path fill="rgb(255,255,255)" stroke="none" d="M 25,0 L 6129,0 6129,3108 25,3108 25,0 Z"/>
 <path fill="rgb(255,255,255)" stroke="none" d="M 3077,3108 L 25,3108 25,0 6129,0 6129,3108 3077,3108 Z"/>
 <path fill="rgb(68,50,5)" stroke="none" d="M 1409,292 C 1276,292 1144,312 1019,353 893,394 774,455 667,533 560,610 465,705 388,812 375,829 363,846 352,863 L 1409,1554 1409,1554 1409,1554 1409,1554 1409,1554 1409,292 Z"/>
 <path fill="rgb(112,110,12)" stroke="none" d="M 352,863 C 291,957 243,1058 208,1164 167,1289 147,1421 147,1553 147,1685 167,1817 208,1942 233,2020 266,2095 306,2166 L 1409,1554 1409,1554 1409,1554 1409,1554 1409,1554 352,863 Z"/>
 <path fill="rgb(172,178,12)" stroke="none" d="M 306,2166 C 330,2211 358,2253 388,2294 465,2401 560,2496 667,2573 774,2651 893,2712 1019,2753 1097,2778 1178,2796 1260,2806 L 1409,1554 1409,1554 1409,1554 1409,1554 1409,1554 306,2166 Z"/>
 <path fill="rgb(230,233,5)" stroke="none" d="M 1260,2806 C 1309,2812 1359,2815 1408,2815 1541,2815 1673,2794 1798,2753 1909,2717 2014,2666 2111,2601 L 1409,1554 1409,1554 1409,1554 1409,1554 1260,2806 Z"/>
 <path fill="rgb(255,255,56)" stroke="none" d="M 2111,2601 C 2124,2592 2137,2583 2150,2573 2257,2496 2352,2401 2429,2294 2507,2187 2568,2068 2609,1942 2650,1817 2671,1685 2671,1554 2671,1421 2650,1289 2609,1164 2568,1038 2507,919 2429,812 2395,764 2357,719 2317,677 L 1409,1554 1409,1554 1409,1554 1409,1554 1409,1554 1409,1554 1409,1554 1409,1554 2111,2601 Z"/>
 <path fill="rgb(255,255,109)" stroke="none" d="M 2317,677 C 2265,624 2210,576 2150,533 2043,455 1924,394 1798,353 1673,312 1541,292 1409,292 L 1409,1554 1409,1554 1409,1554 1409,1554 2317,677 Z"/>
 <text class="TextShape"><tspan class="TextParagraph" font-family="Liberation Sans, sans-serif" font-size="353px" font-weight="400"><tspan class="TextPosition" x="757" y="830"><tspan fill="rgb(0,0,0)" stroke="none">42</tspan></tspan></tspan></text>
 <text class="TextShape"><tspan class="TextParagraph" font-family="Liberation Sans, sans-serif" font-size="353px" font-weight="400"><tspan class="TextPosition" x="201" y="1636"><tspan fill="rgb(0,0,0)" stroke="none">46</tspan></tspan></tspan></text>
 <text class="TextShape"><tspan class="TextParagraph" font-family="Liberation Sans, sans-serif" font-size="353px" font-weight="400"><tspan class="TextPosition" x="684" y="2469"><tspan fill="rgb(0,0,0)" stroke="none">40</tspan></tspan></tspan></text>
 <text class="TextShape"><tspan class="TextParagraph" font-family="Liberation Sans, sans-serif" font-size="353px" font-weight="400"><tspan class="TextPosition" x="1461" y="2630"><tspan fill="rgb(0,0,0)" stroke="none">30</tspan></tspan></tspan></text>
 <text class="TextShape"><tspan class="TextParagraph" font-family="Liberation Sans, sans-serif" font-size="353px" font-weight="400"><tspan class="TextPosition" x="2226" y="1789"><tspan fill="rgb(0,0,0)" stroke="none">74</tspan></tspan></tspan></text>
 <text class="TextShape"><tspan class="TextParagraph" font-family="Liberation Sans, sans-serif" font-size="353px" font-weight="400"><tspan class="TextPosition" x="1612" y="785"><tspan fill="rgb(0,0,0)" stroke="none">34</tspan></tspan></tspan></text>
 <path fill="rgb(68,50,5)" stroke="none" d="M 3014,1161 L 2909,1161 2909,950 3119,950 3119,1161 3014,1161 Z"/>
 <path fill="rgb(112,110,12)" stroke="none" d="M 4591,1161 L 4485,1161 4485,950 4696,950 4696,1161 4591,1161 Z"/>
 <path fill="rgb(172,178,12)" stroke="none" d="M 3014,1658 L 2909,1658 2909,1448 3119,1448 3119,1658 3014,1658 Z"/>
 <path fill="rgb(230,233,5)" stroke="none" d="M 4591,1658 L 4485,1658 4485,1448 4696,1448 4696,1658 4591,1658 Z"/>
 <path fill="rgb(255,255,56)" stroke="none" d="M 3014,2156 L 2909,2156 2909,1945 3119,1945 3119,2156 3014,2156 Z"/>
 <path fill="rgb(255,255,109)" stroke="none" d="M 4591,2156 L 4485,2156 4485,1945 4696,1945 4696,2156 4591,2156 Z"/>
 <text class="TextShape"><tspan class="TextParagraph" font-family="Liberation Sans, sans-serif" font-size="353px" font-weight="400"><tspan class="TextPosition" x="3219" y="1175"><tspan fill="rgb(0,0,0)" stroke="none">AGC</tspan></tspan></tspan></text>
 <text class="TextShape"><tspan class="TextParagraph" font-family="Liberation Sans, sans-serif" font-size="353px" font-weight="400"><tspan class="TextPosition" x="4796" y="1175"><tspan fill="rgb(0,0,0)" stroke="none">CAMK</tspan></tspan></tspan></text>
 <text class="TextShape"><tspan class="TextParagraph" font-family="Liberation Sans, sans-serif" font-size="353px" font-weight="400"><tspan class="TextPosition" x="3219" y="1672"><tspan fill="rgb(0,0,0)" stroke="none">CMGC</tspan></tspan></tspan></text>
 <text class="TextShape"><tspan class="TextParagraph" font-family="Liberation Sans, sans-serif" font-size="353px" font-weight="400"><tspan class="TextPosition" x="4796" y="1672"><tspan fill="rgb(0,0,0)" stroke="none">STE</tspan></tspan></tspan></text>
 <text class="TextShape"><tspan class="TextParagraph" font-family="Liberation Sans, sans-serif" font-size="353px" font-weight="400"><tspan class="TextPosition" x="3219" y="2170"><tspan fill="rgb(0,0,0)" stroke="none">TK</tspan></tspan></tspan></text>
 <text class="TextShape"><tspan class="TextParagraph" font-family="Liberation Sans, sans-serif" font-size="353px" font-weight="400"><tspan class="TextPosition" x="4796" y="2170"><tspan fill="rgb(0,0,0)" stroke="none">TKL</tspan></tspan></tspan></text>
</svg>